<svg width="702" height="151" viewBox="0 0 702 151" fill="none" xmlns="http://www.w3.org/2000/svg">
<path d="M26.88 85.544C26.88 89.896 27.136 93.352 27.648 95.912C28.16 98.472 29.2693 99.9227 30.976 100.264H30.848L32 100.392C34.1333 100.392 35.712 99.9653 36.736 99.112C37.76 98.2587 38.4 97.1493 38.656 95.784C38.9973 94.4187 39.296 92.4987 39.552 90.024C39.7227 87.464 40.0213 85.1173 40.448 82.984C42.24 83.24 43.9893 83.368 45.696 83.368L51.712 83.24C54.9547 83.24 57.5573 83.496 59.52 84.008C59.6907 84.4347 59.776 84.8187 59.776 85.16C59.8613 85.416 59.9893 85.7573 60.16 86.184L62.08 86.568C63.2747 89.896 63.872 93.3093 63.872 96.808C63.872 102.781 62.464 108.029 59.648 112.552C56.9173 117.075 53.0773 120.531 48.128 122.92C43.1787 125.395 37.5467 126.632 31.232 126.632C26.7947 126.632 22.528 125.779 18.432 124.072C14.336 122.365 10.88 119.933 8.064 116.776C5.33333 113.533 3.75467 109.779 3.328 105.512C2.90133 96.9787 2.688 87.8053 2.688 77.992L2.816 58.408C2.90133 57.128 2.944 55.1227 2.944 52.392L2.816 50.984C2.816 48.0827 3.37067 45.48 4.48 43.176V43.304C6.44267 37.8427 9.344 33.7467 13.184 31.016C17.1093 28.2 22.4 26.792 29.056 26.792C34.944 26.792 40.6187 28.3707 46.08 31.528C51.5413 34.6853 55.936 38.8667 59.264 44.072C62.592 49.192 64.256 54.568 64.256 60.2C64.256 63.528 63.5733 67.0693 62.208 70.824C59.7333 71.4213 57.0453 71.72 54.144 71.72C50.3893 71.72 46.1653 71.2507 41.472 70.312L41.216 68.264C40.0213 68.0933 39.296 67.7947 39.04 67.368C38.784 66.9413 38.6133 66.1307 38.528 64.936C38.528 63.656 38.4853 62.7173 38.4 62.12C38.3147 61.4373 38.2293 60.2853 38.144 58.664C38.144 56.9573 37.8027 55.6773 37.12 54.824C36.4373 53.8853 35.2853 53.416 33.664 53.416C32.7253 53.416 31.6587 53.5867 30.464 53.928C29.3547 54.2693 28.5867 54.6533 28.16 55.08C27.9893 55.2507 27.7333 57.4267 27.392 61.608C27.0507 65.704 26.88 71.5067 26.88 79.016V85.544ZM31.616 49.576C33.92 49.576 35.6267 50.1733 36.736 51.368C37.8453 52.4773 38.5707 53.8427 38.912 55.464C39.2533 57.0853 39.5093 59.2613 39.68 61.992C39.68 62.504 39.7227 63.2293 39.808 64.168C39.8933 65.1067 39.9787 65.9173 40.064 66.6C43.8187 67.4533 47.6587 67.88 51.584 67.88C53.9733 67.88 56.3627 67.624 58.752 67.112C59.8613 64.1253 60.416 60.968 60.416 57.64C60.416 52.264 58.9653 47.3147 56.064 42.792C53.1627 38.2693 49.28 34.6853 44.416 32.04C39.6373 29.3947 34.5173 28.072 29.056 28.072C23.2533 28.072 18.3893 29.3093 14.464 31.784C10.5387 34.1733 7.59467 38.1413 5.632 43.688C4.608 46.1627 4.096 48.5093 4.096 50.728C4.096 51.496 4.13867 52.008 4.224 52.264C4.224 54.9093 4.18133 56.872 4.096 58.152L3.968 77.992C3.968 87.72 4.18133 96.8507 4.608 105.384C5.12 111.187 7.72267 115.539 12.416 118.44C17.1093 121.341 22.528 122.792 28.672 122.792C34.6453 122.792 40.0213 121.64 44.8 119.336C49.5787 116.947 53.2907 113.619 55.936 109.352C58.6667 105 60.032 99.9653 60.032 94.248C60.032 91.0053 59.5627 87.976 58.624 85.16C57.0027 84.7333 54.784 84.52 51.968 84.52L45.184 84.648C44.2453 84.648 43.008 84.5627 41.472 84.392C41.1307 85.5867 40.8747 87.5067 40.704 90.152C40.5333 92.6267 40.2347 94.6747 39.808 96.296C39.4667 97.832 38.656 99.112 37.376 100.136C36.1813 101.16 34.3467 101.672 31.872 101.672C28.2027 101.672 25.7707 99.7947 24.576 96.04C23.4667 92.2 22.912 87.208 22.912 81.064V76.456C22.912 68.4347 23.1253 62.376 23.552 58.28C23.9787 54.184 24.3627 51.9653 24.704 51.624C25.3867 50.9413 26.4107 50.4293 27.776 50.088C29.1413 49.7467 30.4213 49.576 31.616 49.576ZM67.108 62.12C68.388 59.3893 70.9053 57.3413 74.66 55.976C78.5 54.6107 82.8093 53.928 87.588 53.928C88.2707 54.0133 89.8493 54.056 92.324 54.056L95.396 53.928C98.6387 53.928 101.796 54.44 104.868 55.464C107.94 56.488 110.5 57.9813 112.548 59.944H112.42C112.676 60.2853 113.06 60.7547 113.572 61.352C114.084 61.864 114.553 62.248 114.98 62.504L114.852 62.376C117.156 63.912 118.692 66.984 119.46 71.592C120.313 76.2 120.74 81.9173 120.74 88.744C120.74 94.8027 120.356 101.075 119.588 107.56C118.82 114.045 117.753 118.056 116.388 119.592C114.596 122.152 112.164 123.901 109.092 124.84C106.02 125.779 102.436 126.248 98.34 126.248C93.988 126.248 90.4467 126.12 87.716 125.864C85.0707 125.608 82.4253 124.883 79.78 123.688C77.22 122.579 74.7453 120.787 72.356 118.312L71.204 117.16C68.5587 114.685 66.7667 111.528 65.828 107.688C64.8893 103.763 64.42 99.1973 64.42 93.992V89.384L64.548 85.032C64.548 84.008 64.5053 83.0267 64.42 82.088C64.3347 81.1493 64.292 80.296 64.292 79.528C64.292 75.8587 64.3773 73.0853 64.548 71.208C64.7187 69.3307 65.3587 67.0693 66.468 64.424H66.34C66.4253 63.912 66.5107 63.4 66.596 62.888C66.7667 62.376 66.9373 62.0347 67.108 61.864V61.992L66.98 62.376L67.108 62.12ZM65.7 84.776V94.248C65.7 101.757 66.9373 107.987 69.412 112.936C71.972 117.8 76.5373 120.787 83.108 121.896L89.124 122.024C92.0253 122.195 94.2867 122.28 95.908 122.28C99.9187 122.28 103.332 121.853 106.148 121C108.964 120.147 111.183 118.568 112.804 116.264C114.255 114.813 115.193 111.571 115.62 106.536C116.132 101.501 116.559 94.7173 116.9 86.184C116.9 85.416 116.815 82.6853 116.644 77.992C116.473 73.2133 115.961 69.416 115.108 66.6C114.34 63.6987 113.188 61.7787 111.652 60.84C107.812 57.0853 102.223 55.208 94.884 55.208L90.02 55.336C88.9107 55.336 88.0573 55.2933 87.46 55.208C83.108 55.208 79.0973 55.848 75.428 57.128C71.7587 58.408 69.3693 60.2427 68.26 62.632C67.3213 65.96 66.6387 68.904 66.212 71.464C65.7853 74.024 65.572 76.6693 65.572 79.4L65.7 84.776ZM91.94 74.536C97.9133 74.536 100.9 78.9733 100.9 87.848C100.9 91.5173 100.729 94.4613 100.388 96.68C100.047 98.8133 99.1507 100.563 97.7 101.928C96.2493 103.293 94.0307 103.976 91.044 103.976C88.484 103.976 86.3933 103.421 84.772 102.312C83.1507 101.203 82.34 99.4107 82.34 96.936C82.4253 95.8267 82.468 93.864 82.468 91.048C82.468 87.1227 82.5533 84.0933 82.724 81.96C82.98 79.7413 83.492 78.3333 84.26 77.736C85.9667 75.6027 88.5267 74.536 91.94 74.536ZM87.588 81.32C86.9053 81.7467 86.4787 83.7093 86.308 87.208C86.2227 90.6213 86.18 94.76 86.18 99.624C86.18 100.989 86.6067 101.843 87.46 102.184C88.3133 102.525 89.508 102.696 91.044 102.696C96.2493 102.696 98.852 100.904 98.852 97.32C99.364 92.712 99.62 89.384 99.62 87.336C99.62 84.52 99.2787 82.344 98.596 80.808C97.9987 79.272 96.548 78.504 94.244 78.504C93.732 78.504 92.7933 78.5893 91.428 78.76H91.556C89.9347 79.1867 88.6973 79.9547 87.844 81.064L87.588 81.32ZM143.555 29.608H146.115C146.115 33.5333 146.03 42.5787 145.859 56.744C145.774 60.9253 145.688 66.4293 145.603 73.256C145.518 80.0827 145.475 88.0613 145.475 97.192C145.475 108.968 145.646 117.629 145.987 123.176C145.304 123.859 144.366 124.328 143.171 124.584C141.976 124.84 140.44 124.968 138.563 124.968C136.088 124.968 134.211 124.925 132.931 124.84H133.059L129.987 124.712C128.11 124.712 126.531 124.925 125.251 125.352L125.379 122.28C124.355 122.28 123.459 122.451 122.691 122.792C123.288 114.429 123.587 106.707 123.587 99.624C123.587 94.4187 123.416 86.44 123.075 75.688C122.734 65.1067 122.563 57.0427 122.563 51.496C122.563 42.536 122.947 34.2587 123.715 26.664L143.555 27.048V29.608ZM124.867 27.944C124.099 36.136 123.715 44.2853 123.715 52.392C123.715 59.7307 123.928 67.7947 124.355 76.584C124.696 87.336 124.867 95.3147 124.867 100.52C124.867 107.347 124.611 114.173 124.099 121C124.27 120.915 124.952 120.872 126.147 120.872C127.939 120.872 129.39 120.915 130.499 121L136.259 121.128C138.136 121.128 139.502 121.085 140.355 121C141.294 120.915 141.891 120.659 142.147 120.232C141.891 116.051 141.763 107.475 141.763 94.504C141.763 84.6907 141.848 71.2507 142.019 54.184L142.275 28.328L124.867 27.944ZM169.93 29.608H172.49C172.49 33.5333 172.405 42.5787 172.234 56.744C172.149 60.9253 172.063 66.4293 171.978 73.256C171.893 80.0827 171.85 88.0613 171.85 97.192C171.85 108.968 172.021 117.629 172.362 123.176C171.679 123.859 170.741 124.328 169.546 124.584C168.351 124.84 166.815 124.968 164.938 124.968C162.463 124.968 160.586 124.925 159.306 124.84H159.434L156.362 124.712C154.485 124.712 152.906 124.925 151.626 125.352L151.754 122.28C150.73 122.28 149.834 122.451 149.066 122.792C149.663 114.429 149.962 106.707 149.962 99.624C149.962 94.4187 149.791 86.44 149.45 75.688C149.109 65.1067 148.938 57.0427 148.938 51.496C148.938 42.536 149.322 34.2587 150.09 26.664L169.93 27.048V29.608ZM151.242 27.944C150.474 36.136 150.09 44.2853 150.09 52.392C150.09 59.7307 150.303 67.7947 150.73 76.584C151.071 87.336 151.242 95.3147 151.242 100.52C151.242 107.347 150.986 114.173 150.474 121C150.645 120.915 151.327 120.872 152.522 120.872C154.314 120.872 155.765 120.915 156.874 121L162.634 121.128C164.511 121.128 165.877 121.085 166.73 121C167.669 120.915 168.266 120.659 168.522 120.232C168.266 116.051 168.138 107.475 168.138 94.504C168.138 84.6907 168.223 71.2507 168.394 54.184L168.65 28.328L151.242 27.944ZM196.433 95.144C196.433 97.3627 196.561 99.1973 196.817 100.648C197.158 102.013 197.798 103.507 198.737 105.128V105.384C199.846 105.981 201.212 106.28 202.833 106.28C204.625 106.28 206.118 105.469 207.313 103.848C208.508 102.141 209.105 99.624 209.105 96.296V95.016C210.982 95.1867 212.39 95.272 213.329 95.272L217.809 95.144C218.748 95.0587 220.198 95.016 222.161 95.016C223.612 95.016 225.532 95.2293 227.921 95.656L227.793 97.832L230.481 98.216C230.481 107.432 229.457 114.045 227.409 118.056C225.446 122.067 222.886 124.456 219.729 125.224C216.657 126.077 211.921 126.504 205.521 126.504C200.401 126.504 196.305 126.12 193.233 125.352C190.246 124.669 187.686 123.048 185.553 120.488C181.628 117.245 178.726 112.595 176.849 106.536C174.972 100.477 174.033 93.9067 174.033 86.824C174.033 78.5467 175.014 71.7627 176.977 66.472C178.769 62.376 181.884 59.2613 186.321 57.128C190.758 54.9093 195.708 53.8 201.169 53.8C207.74 53.8 213.244 55.208 217.681 58.024C222.204 60.84 225.532 64.6373 227.665 69.416C229.884 74.1093 230.993 79.272 230.993 84.904C230.993 85.416 230.865 87.592 230.609 91.432C228.988 91.8587 224.678 92.2427 217.681 92.584C210.769 92.9253 204.625 93.096 199.249 93.096C197.969 93.096 197.03 93.0533 196.433 92.968V95.144ZM192.593 88.872C193.617 89.128 196.561 89.256 201.425 89.256C206.118 89.256 211.196 89.128 216.657 88.872C222.118 88.5307 225.532 88.1893 226.897 87.848C227.068 85.288 227.153 83.4533 227.153 82.344C227.153 73.8107 225.233 67.1547 221.393 62.376C217.638 57.512 210.897 55.08 201.169 55.08C196.049 55.08 191.313 56.1467 186.961 58.28C182.694 60.328 179.75 63.1867 178.129 66.856C176.166 72.1467 175.185 79.2293 175.185 88.104C175.185 96.9787 176.678 104.659 179.665 111.144C182.652 117.629 187.302 121.341 193.617 122.28L199.249 122.408C202.15 122.579 204.412 122.664 206.033 122.664C210.044 122.664 213.457 122.237 216.273 121.384C219.174 120.531 221.436 118.952 223.057 116.648C224.166 115.709 224.934 113.747 225.361 110.76C225.788 107.688 226.214 102.995 226.641 96.68C225.361 96.424 223.697 96.296 221.649 96.296L216.657 96.424C215.633 96.5093 214.225 96.552 212.433 96.552C211.409 96.552 210.769 96.5093 210.513 96.424V97.448C210.513 100.776 209.745 103.293 208.209 105C206.758 106.707 204.966 107.56 202.833 107.56C196.262 107.56 192.849 102.099 192.593 91.176V88.872ZM213.073 78.76C213.073 79.016 212.774 79.144 212.177 79.144C211.75 79.144 210.897 79.1013 209.617 79.016C208.337 78.9307 206.801 78.888 205.009 78.888L196.689 79.016C195.068 79.016 194.001 78.9307 193.489 78.76C192.977 78.5893 192.721 78.2053 192.721 77.608C192.721 71.0373 196.348 67.752 203.601 67.752C205.222 67.752 206.716 68.1787 208.081 69.032C209.617 69.8 210.812 70.952 211.665 72.488C212.604 74.024 213.073 75.6453 213.073 77.352V78.76ZM210.001 72.616C208.892 71.9333 207.612 71.592 206.161 71.592C203.174 71.592 200.998 72.104 199.633 73.128C198.353 74.152 197.457 75.688 196.945 77.736L199.377 77.608H205.009L210.513 77.736L211.793 77.864V77.352C211.793 75.3893 211.238 73.8533 210.129 72.744L210.001 72.616ZM288.252 58.408C288.593 68.392 288.764 80.424 288.764 94.504C288.764 107.731 288.551 119.251 288.124 129.064V132.136C288.124 138.792 286.332 143.4 282.748 145.96C279.164 148.605 275.495 150.099 271.74 150.44C270.545 150.611 269.479 150.696 268.54 150.696C263.164 150.696 258.641 150.397 254.972 149.8C251.388 149.288 247.975 148.093 244.732 146.216C241.489 144.339 238.588 141.437 236.028 137.512C235.345 136.573 234.833 135.123 234.492 133.16C234.151 131.283 233.98 129.448 233.98 127.656C233.98 126.632 234.023 125.907 234.108 125.48C236.156 124.627 238.844 124.2 242.172 124.2C242.599 124.2 243.537 124.2 244.988 124.2C246.439 124.2 247.676 124.285 248.7 124.456C245.713 123.688 242.897 122.323 240.252 120.36C237.607 118.397 235.772 116.179 234.748 113.704V113.832C232.7 109.907 231.463 104.744 231.036 98.344C231.036 90.7493 231.42 84.1787 232.188 78.632C233.041 73 235.089 68.008 238.332 63.656C241.66 59.2187 246.737 56.7013 253.564 56.104C255.868 56.104 258.087 56.4453 260.22 57.128C262.353 57.7253 264.103 58.7067 265.468 60.072C265.468 58.536 265.767 57.2133 266.364 56.104C269.436 55.7627 272.209 55.592 274.684 55.592C276.903 55.592 278.609 55.6347 279.804 55.72L285.692 55.848L285.82 58.408H288.252ZM284.284 127.784C284.284 121.555 284.412 115.453 284.668 109.48C284.839 101.629 284.924 95.784 284.924 91.944C284.924 78.7173 284.753 67.112 284.412 57.128L277.756 57C276.22 56.9147 273.959 56.872 270.972 56.872C268.156 56.872 266.748 57.5973 266.748 59.048L266.876 61.224V62.376C266.876 63.144 266.791 63.528 266.62 63.528L266.364 63.4C265.425 61.352 263.975 59.8587 262.012 58.92C260.135 57.896 257.873 57.384 255.228 57.384C247.975 57.384 242.684 59.5173 239.356 63.784C236.028 67.9653 234.023 72.744 233.34 78.12C232.657 83.4107 232.316 90.1093 232.316 98.216C232.572 101.288 232.956 104.019 233.468 106.408C233.98 108.712 234.791 110.973 235.9 113.192C238.545 118.568 244.092 121.256 252.54 121.256C253.223 121.171 254.289 121.128 255.74 121.128C258.641 121.043 260.945 120.829 262.652 120.488C264.444 120.061 265.937 119.208 267.132 117.928C267.047 118.525 267.004 119.293 267.004 120.232L267.132 123.304C267.132 126.803 266.407 129.405 264.956 131.112C263.591 132.904 261.713 133.8 259.324 133.8C257.191 133.8 255.356 133.117 253.82 131.752C252.369 130.472 251.644 128.637 251.644 126.248C248.913 125.821 245.372 125.608 241.02 125.608C239.143 125.608 237.692 125.736 236.668 125.992C235.644 126.248 235.132 126.803 235.132 127.656C235.132 133.373 237.095 137.939 241.02 141.352C245.031 144.851 249.937 146.6 255.74 146.6L266.364 146.728C267.815 146.728 268.668 146.685 268.924 146.6C272.423 146.173 275.836 144.893 279.164 142.76C282.577 140.712 284.284 136.915 284.284 131.368V127.784ZM258.684 73.128C262.268 73.128 264.657 74.8347 265.852 78.248C267.132 81.576 267.772 85.928 267.772 91.304L267.644 98.088C267.388 100.136 267.047 101.715 266.62 102.824C266.279 103.933 265.511 104.872 264.316 105.64C263.207 106.323 261.543 106.664 259.324 106.664C255.399 106.664 252.327 105.213 250.108 102.312C247.889 99.4107 246.78 95.912 246.78 91.816V88.232C246.78 85.928 247.249 83.624 248.188 81.32C249.212 78.9307 250.62 76.968 252.412 75.432C254.204 73.896 256.295 73.128 258.684 73.128ZM266.364 97.96C266.364 94.5467 266.236 90.9627 265.98 87.208C265.724 83.368 265.297 80.2107 264.7 77.736C263.676 77.224 262.524 76.968 261.244 76.968C258.769 76.968 256.849 77.608 255.484 78.888L255.74 78.76C253.948 80.808 252.625 82.8987 251.772 85.032C251.004 87.08 250.62 89.4693 250.62 92.2V94.376C250.62 97.6187 251.217 100.264 252.412 102.312C253.692 104.275 256.039 105.256 259.452 105.256C261.415 105.256 262.823 105 263.676 104.488C264.615 103.976 265.212 103.251 265.468 102.312C265.809 101.373 266.108 99.9227 266.364 97.96ZM252.54 124.968C252.711 125.053 252.839 125.395 252.924 125.992C253.009 126.675 253.095 127.101 253.18 127.272L255.484 127.656C255.484 129.363 255.74 130.6 256.252 131.368C256.764 132.136 257.788 132.52 259.324 132.52C260.775 132.52 262.183 131.923 263.548 130.728C264.999 129.533 265.724 127.997 265.724 126.12L265.852 124.072C264.572 124.499 263.164 124.755 261.628 124.84C260.177 124.925 259.281 124.968 258.94 124.968C257.233 124.968 255.996 125.011 255.228 125.096C254.033 125.096 253.137 125.053 252.54 124.968ZM313.058 95.144C313.058 97.3627 313.186 99.1973 313.442 100.648C313.783 102.013 314.423 103.507 315.362 105.128V105.384C316.471 105.981 317.837 106.28 319.458 106.28C321.25 106.28 322.743 105.469 323.938 103.848C325.133 102.141 325.73 99.624 325.73 96.296V95.016C327.607 95.1867 329.015 95.272 329.954 95.272L334.434 95.144C335.373 95.0587 336.823 95.016 338.786 95.016C340.237 95.016 342.157 95.2293 344.546 95.656L344.418 97.832L347.106 98.216C347.106 107.432 346.082 114.045 344.034 118.056C342.071 122.067 339.511 124.456 336.354 125.224C333.282 126.077 328.546 126.504 322.146 126.504C317.026 126.504 312.93 126.12 309.858 125.352C306.871 124.669 304.311 123.048 302.178 120.488C298.253 117.245 295.351 112.595 293.474 106.536C291.597 100.477 290.658 93.9067 290.658 86.824C290.658 78.5467 291.639 71.7627 293.602 66.472C295.394 62.376 298.509 59.2613 302.946 57.128C307.383 54.9093 312.333 53.8 317.794 53.8C324.365 53.8 329.869 55.208 334.306 58.024C338.829 60.84 342.157 64.6373 344.29 69.416C346.509 74.1093 347.618 79.272 347.618 84.904C347.618 85.416 347.49 87.592 347.234 91.432C345.613 91.8587 341.303 92.2427 334.306 92.584C327.394 92.9253 321.25 93.096 315.874 93.096C314.594 93.096 313.655 93.0533 313.058 92.968V95.144ZM309.218 88.872C310.242 89.128 313.186 89.256 318.05 89.256C322.743 89.256 327.821 89.128 333.282 88.872C338.743 88.5307 342.157 88.1893 343.522 87.848C343.693 85.288 343.778 83.4533 343.778 82.344C343.778 73.8107 341.858 67.1547 338.018 62.376C334.263 57.512 327.522 55.08 317.794 55.08C312.674 55.08 307.938 56.1467 303.586 58.28C299.319 60.328 296.375 63.1867 294.754 66.856C292.791 72.1467 291.81 79.2293 291.81 88.104C291.81 96.9787 293.303 104.659 296.29 111.144C299.277 117.629 303.927 121.341 310.242 122.28L315.874 122.408C318.775 122.579 321.037 122.664 322.658 122.664C326.669 122.664 330.082 122.237 332.898 121.384C335.799 120.531 338.061 118.952 339.682 116.648C340.791 115.709 341.559 113.747 341.986 110.76C342.413 107.688 342.839 102.995 343.266 96.68C341.986 96.424 340.322 96.296 338.274 96.296L333.282 96.424C332.258 96.5093 330.85 96.552 329.058 96.552C328.034 96.552 327.394 96.5093 327.138 96.424V97.448C327.138 100.776 326.37 103.293 324.834 105C323.383 106.707 321.591 107.56 319.458 107.56C312.887 107.56 309.474 102.099 309.218 91.176V88.872ZM329.698 78.76C329.698 79.016 329.399 79.144 328.802 79.144C328.375 79.144 327.522 79.1013 326.242 79.016C324.962 78.9307 323.426 78.888 321.634 78.888L313.314 79.016C311.693 79.016 310.626 78.9307 310.114 78.76C309.602 78.5893 309.346 78.2053 309.346 77.608C309.346 71.0373 312.973 67.752 320.226 67.752C321.847 67.752 323.341 68.1787 324.706 69.032C326.242 69.8 327.437 70.952 328.29 72.488C329.229 74.024 329.698 75.6453 329.698 77.352V78.76ZM326.626 72.616C325.517 71.9333 324.237 71.592 322.786 71.592C319.799 71.592 317.623 72.104 316.258 73.128C314.978 74.152 314.082 75.688 313.57 77.736L316.002 77.608H321.634L327.138 77.736L328.418 77.864V77.352C328.418 75.3893 327.863 73.8533 326.754 72.744L326.626 72.616ZM425.638 43.944C429.307 49.4907 431.953 55.8907 433.574 63.144L433.446 63.016C434.129 65.064 434.555 67.9227 434.726 71.592L434.342 78.888C434.171 86.1413 433.702 91.6453 432.934 95.4C431.142 100.605 428.795 105.512 425.894 110.12C423.078 114.728 419.75 119.421 415.91 124.2C407.718 124.456 398.971 124.584 389.67 124.584C387.451 124.669 384.337 124.712 380.326 124.712L379.942 122.024L377.766 122.152C376.23 110.973 375.462 96.68 375.462 79.272C375.462 72.0187 375.505 66.5573 375.59 62.888L375.718 45.48C375.718 39.9333 375.675 35.7947 375.59 33.064C375.59 32.8933 375.633 32.7653 375.718 32.68C375.889 32.2533 376.187 31.8267 376.614 31.4C378.833 30.8027 381.051 30.4187 383.27 30.248C385.574 29.992 388.262 29.864 391.334 29.864C393.979 29.864 395.985 29.9067 397.35 29.992L403.238 30.12C405.457 30.12 407.121 30.0773 408.23 29.992C411.643 31.016 415.014 32.8933 418.342 35.624C421.67 38.2693 424.145 41.0427 425.766 43.944H425.638ZM404.39 31.4C401.659 31.4 399.569 31.3573 398.118 31.272L391.718 31.144C385.83 31.144 381.009 31.6133 377.254 32.552L376.87 33.064C376.955 35.7947 376.998 39.8907 376.998 45.352L376.87 62.76C376.785 66.5147 376.742 72.1893 376.742 79.784C376.742 88.3173 376.87 95.8267 377.126 102.312C377.467 108.797 378.065 114.984 378.918 120.872L379.046 120.744C393.979 120.744 405.201 120.616 412.71 120.36C416.635 115.496 419.921 110.931 422.566 106.664C425.297 102.397 427.43 97.9173 428.966 93.224L429.094 92.968C429.947 88.4453 430.459 82.344 430.63 74.664L430.886 68.904C430.63 64.296 429.734 59.6453 428.198 54.952C426.662 50.2587 424.614 45.9493 422.054 42.024C420.518 39.464 418.47 37.2027 415.91 35.24C413.435 33.2773 410.833 31.9547 408.102 31.272L404.39 31.4ZM404.006 93.352C402.555 93.608 401.062 93.736 399.526 93.736C397.563 93.736 396.155 93.352 395.302 92.584C395.131 88.6587 395.046 85.6293 395.046 83.496L395.174 74.92C395.259 73.128 395.302 70.568 395.302 67.24C395.302 65.2773 395.217 62.6747 395.046 59.432V58.92H395.43C396.966 58.664 398.587 58.536 400.294 58.536C405.414 58.536 408.955 60.4133 410.918 64.168C412.881 67.8373 413.862 72.1467 413.862 77.096C413.862 80.936 412.667 84.7333 410.278 88.488C409.425 89.768 408.443 90.92 407.334 91.944C406.225 92.8827 405.201 93.352 404.262 93.352H404.006ZM409.254 87.848C411.473 84.52 412.582 80.936 412.582 77.096C412.582 75.2187 412.241 72.9573 411.558 70.312C410.875 67.5813 409.937 65.2347 408.742 63.272L407.462 62.632C405.414 62.4613 403.878 62.376 402.854 62.376C402.086 62.376 400.763 62.4613 398.886 62.632C399.057 65.8747 399.142 68.5627 399.142 70.696L399.014 80.552C398.843 84.9893 398.758 88.2747 398.758 90.408L398.886 92.456H399.526C400.465 92.456 401.361 92.4133 402.214 92.328C403.067 92.1573 403.707 92.072 404.134 92.072L404.39 92.2C404.646 92.2 405.115 91.944 405.798 91.432H405.67C406.95 90.664 408.145 89.4267 409.254 87.72V87.848ZM457.308 95.144C457.308 97.3627 457.436 99.1973 457.692 100.648C458.033 102.013 458.673 103.507 459.612 105.128V105.384C460.721 105.981 462.087 106.28 463.708 106.28C465.5 106.28 466.993 105.469 468.188 103.848C469.383 102.141 469.98 99.624 469.98 96.296V95.016C471.857 95.1867 473.265 95.272 474.204 95.272L478.684 95.144C479.623 95.0587 481.073 95.016 483.036 95.016C484.487 95.016 486.407 95.2293 488.796 95.656L488.668 97.832L491.356 98.216C491.356 107.432 490.332 114.045 488.284 118.056C486.321 122.067 483.761 124.456 480.604 125.224C477.532 126.077 472.796 126.504 466.396 126.504C461.276 126.504 457.18 126.12 454.108 125.352C451.121 124.669 448.561 123.048 446.428 120.488C442.503 117.245 439.601 112.595 437.724 106.536C435.847 100.477 434.908 93.9067 434.908 86.824C434.908 78.5467 435.889 71.7627 437.852 66.472C439.644 62.376 442.759 59.2613 447.196 57.128C451.633 54.9093 456.583 53.8 462.044 53.8C468.615 53.8 474.119 55.208 478.556 58.024C483.079 60.84 486.407 64.6373 488.54 69.416C490.759 74.1093 491.868 79.272 491.868 84.904C491.868 85.416 491.74 87.592 491.484 91.432C489.863 91.8587 485.553 92.2427 478.556 92.584C471.644 92.9253 465.5 93.096 460.124 93.096C458.844 93.096 457.905 93.0533 457.308 92.968V95.144ZM453.468 88.872C454.492 89.128 457.436 89.256 462.3 89.256C466.993 89.256 472.071 89.128 477.532 88.872C482.993 88.5307 486.407 88.1893 487.772 87.848C487.943 85.288 488.028 83.4533 488.028 82.344C488.028 73.8107 486.108 67.1547 482.268 62.376C478.513 57.512 471.772 55.08 462.044 55.08C456.924 55.08 452.188 56.1467 447.836 58.28C443.569 60.328 440.625 63.1867 439.004 66.856C437.041 72.1467 436.06 79.2293 436.06 88.104C436.06 96.9787 437.553 104.659 440.54 111.144C443.527 117.629 448.177 121.341 454.492 122.28L460.124 122.408C463.025 122.579 465.287 122.664 466.908 122.664C470.919 122.664 474.332 122.237 477.148 121.384C480.049 120.531 482.311 118.952 483.932 116.648C485.041 115.709 485.809 113.747 486.236 110.76C486.663 107.688 487.089 102.995 487.516 96.68C486.236 96.424 484.572 96.296 482.524 96.296L477.532 96.424C476.508 96.5093 475.1 96.552 473.308 96.552C472.284 96.552 471.644 96.5093 471.388 96.424V97.448C471.388 100.776 470.62 103.293 469.084 105C467.633 106.707 465.841 107.56 463.708 107.56C457.137 107.56 453.724 102.099 453.468 91.176V88.872ZM473.948 78.76C473.948 79.016 473.649 79.144 473.052 79.144C472.625 79.144 471.772 79.1013 470.492 79.016C469.212 78.9307 467.676 78.888 465.884 78.888L457.564 79.016C455.943 79.016 454.876 78.9307 454.364 78.76C453.852 78.5893 453.596 78.2053 453.596 77.608C453.596 71.0373 457.223 67.752 464.476 67.752C466.097 67.752 467.591 68.1787 468.956 69.032C470.492 69.8 471.687 70.952 472.54 72.488C473.479 74.024 473.948 75.6453 473.948 77.352V78.76ZM470.876 72.616C469.767 71.9333 468.487 71.592 467.036 71.592C464.049 71.592 461.873 72.104 460.508 73.128C459.228 74.152 458.332 75.688 457.82 77.736L460.252 77.608H465.884L471.388 77.736L472.668 77.864V77.352C472.668 75.3893 472.113 73.8533 471.004 72.744L470.876 72.616ZM528.903 86.056C530.951 89.2987 532.444 91.7307 533.383 93.352C537.394 99.6667 540.807 105.213 543.623 109.992C546.439 114.685 549.127 119.635 551.687 124.84C549.98 124.84 547.164 124.925 543.239 125.096C538.972 125.267 535.687 125.352 533.383 125.352C531.676 125.352 530.311 125.139 529.287 124.712C528.348 124.371 527.58 123.603 526.983 122.408L525.831 122.152C523.271 118.227 520.882 113.789 518.663 108.84C517.81 106.963 517.127 105.555 516.615 104.616L516.743 112.168C516.743 117.288 516.402 121.555 515.719 124.968C514.439 124.883 512.519 124.84 509.959 124.84H507.911C505.18 125.011 503.047 125.096 501.511 125.096C501.17 125.096 500.487 125.096 499.463 125.096C498.524 125.181 497.756 125.011 497.159 124.584C496.647 124.157 496.391 123.432 496.391 122.408C495.964 122.408 495.154 122.323 493.959 122.152C493.618 113.192 493.447 102.909 493.447 91.304C493.447 84.392 493.532 73.8533 493.703 59.688C493.874 45.352 493.959 34.3867 493.959 26.792C496.604 26.792 498.652 26.7493 500.103 26.664L507.143 26.536C507.996 26.536 509.362 26.6213 511.239 26.792L513.927 26.92V29.352L516.487 29.48V58.664C516.487 60.3707 516.444 61.6507 516.359 62.504L516.231 66.472L518.535 62.632C520.839 58.792 523.058 55.592 525.191 53.032C526.983 53.6293 529.33 53.928 532.231 53.928L537.735 53.8C540.295 53.6293 542.258 53.544 543.623 53.544C545.5 53.544 546.994 53.5867 548.103 53.672C547.847 54.0987 547.548 54.5253 547.207 54.952C546.951 55.2933 546.695 55.6773 546.439 56.104C548.146 56.104 549.554 56.1467 550.663 56.232C547.762 60.7547 545.074 64.7227 542.599 68.136C540.124 71.464 536.967 75.6027 533.127 80.552L528.903 86.056ZM532.999 121.512C534.962 121.512 537.735 121.427 541.319 121.256C544.22 121.085 546.14 121 547.079 121C544.86 116.563 542.556 112.339 540.167 108.328C537.778 104.317 534.492 98.984 530.311 92.328L524.807 83.496L532.103 73.896C538.759 65.1067 543.367 58.7493 545.927 54.824H544.135L538.631 54.952C535.73 55.1227 533.554 55.208 532.103 55.208C529.031 55.208 526.898 54.952 525.703 54.44C523.74 56.744 521.906 59.4747 520.199 62.632C517.554 67.24 515.036 70.6107 512.647 72.744C512.476 70.8667 512.391 69.2453 512.391 67.88C512.391 65.4053 512.434 63.4853 512.519 62.12L512.647 56.104V28.072C511.111 27.9013 509.831 27.816 508.807 27.816L504.199 27.944L495.239 28.072C495.239 35.1547 495.154 45.6933 494.983 59.688C494.812 73.6827 494.727 84.264 494.727 91.432C494.727 102.184 494.898 112.04 495.239 121C497.116 121.171 498.524 121.256 499.463 121.256C500.828 121.256 502.706 121.171 505.095 121L509.831 120.872L512.135 121C512.647 118.269 512.903 114.515 512.903 109.736L512.775 101.8C512.69 100.435 512.647 98.6 512.647 96.296C514.183 98.2587 515.548 100.349 516.743 102.568C518.023 104.701 519.388 107.347 520.839 110.504C523.314 115.539 525.191 119.037 526.471 121C527.922 121.341 530.098 121.512 532.999 121.512ZM568.528 29.224C569.723 29.3093 570.491 29.864 570.832 30.888C571.259 31.912 571.472 33.6187 571.472 36.008L571.344 44.968L571.216 60.072C574.971 57.5973 579.408 56.36 584.528 56.36C587.259 56.36 589.904 56.8293 592.464 57.768C595.024 58.7067 596.944 60.1573 598.224 62.12L599.76 63.272C601.979 64.9787 603.088 72.1467 603.088 84.776C603.088 88.104 603.003 93.096 602.832 99.752C602.661 106.237 602.576 110.973 602.576 113.96C602.576 117.373 602.661 120.872 602.832 124.456C599.76 124.883 596.176 125.096 592.08 125.096H584.4C584.315 124.499 584.272 123.645 584.272 122.536H581.84C581.584 119.891 581.456 114.728 581.456 107.048V100.648C581.456 96.04 581.371 92.328 581.2 89.512C581.029 86.6107 580.56 84.1787 579.792 82.216C579.195 81.96 578.299 81.832 577.104 81.832C574.544 81.832 572.752 82.6853 571.728 84.392C570.789 86.0987 570.32 89.384 570.32 94.248C570.32 96.552 570.405 99.752 570.576 103.848C570.747 108.115 570.832 111.229 570.832 113.192C570.832 116.861 570.661 120.061 570.32 122.792V124.2C567.333 124.968 564.859 125.352 562.896 125.352C561.701 125.352 560.763 125.309 560.08 125.224L557.008 125.096H555.6C554.32 125.096 553.083 125.181 551.888 125.352V122.536L549.328 122.792C549.328 112.979 549.285 104.915 549.2 98.6L549.072 60.072V45.48C549.072 36.4347 549.157 30.2907 549.328 27.048C551.376 27.304 553.296 27.432 555.088 27.432C555.771 27.432 556.88 27.304 558.416 27.048C560.037 26.792 562.213 26.664 564.944 26.664C567.248 26.664 568.443 27.176 568.528 28.2V29.224ZM567.376 29.48C567.376 28.7973 567.291 28.3707 567.12 28.2C566.949 27.944 566.48 27.816 565.712 27.816C563.323 27.816 560.635 28.0293 557.648 28.456C556.283 28.6267 555.429 28.712 555.088 28.712H553.552C552.443 28.712 551.461 28.6267 550.608 28.456C550.437 38.696 550.352 48.5093 550.352 57.896V75.56L550.48 104.232C550.565 108.669 550.608 114.387 550.608 121.384C551.632 121.299 552.997 121.256 554.704 121.256L560.848 121.384C562.64 121.384 564.517 121.128 566.48 120.616V120.104C566.821 117.288 566.992 114.131 566.992 110.632C566.992 108.413 566.907 105.171 566.736 100.904C566.565 96.6373 566.48 93.3947 566.48 91.176C566.48 86.056 567.12 82.6 568.4 80.808C569.68 78.9307 571.728 77.992 574.544 77.992C577.616 77.992 579.579 78.9307 580.432 80.808C581.371 82.6 581.925 84.648 582.096 86.952C582.267 89.1707 582.395 90.7067 582.48 91.56C582.651 92.84 582.736 94.888 582.736 97.704V102.184V111.656V115.752C582.736 118.312 582.821 120.147 582.992 121.256L590.416 121.384C593.488 121.384 596.347 121.171 598.992 120.744C598.821 117.501 598.736 114.813 598.736 112.68C598.736 109.693 598.821 104.872 598.992 98.216C599.163 91.2187 599.248 86.0987 599.248 82.856C599.248 76.968 599.035 72.232 598.608 68.648C598.181 64.9787 597.413 62.632 596.304 61.608C593.403 58.9627 589.435 57.64 584.4 57.64C581.669 57.64 579.237 58.0667 577.104 58.92C574.971 59.7733 572.965 60.7547 571.088 61.864C569.211 62.888 567.973 63.5707 567.376 63.912V31.784V29.48ZM607.983 62.12C609.263 59.3893 611.78 57.3413 615.535 55.976C619.375 54.6107 623.684 53.928 628.463 53.928C629.146 54.0133 630.724 54.056 633.199 54.056L636.271 53.928C639.514 53.928 642.671 54.44 645.743 55.464C648.815 56.488 651.375 57.9813 653.423 59.944H653.295C653.551 60.2853 653.935 60.7547 654.447 61.352C654.959 61.864 655.428 62.248 655.855 62.504L655.727 62.376C658.031 63.912 659.567 66.984 660.335 71.592C661.188 76.2 661.615 81.9173 661.615 88.744C661.615 94.8027 661.231 101.075 660.463 107.56C659.695 114.045 658.628 118.056 657.263 119.592C655.471 122.152 653.039 123.901 649.967 124.84C646.895 125.779 643.311 126.248 639.215 126.248C634.863 126.248 631.322 126.12 628.591 125.864C625.946 125.608 623.3 124.883 620.655 123.688C618.095 122.579 615.62 120.787 613.231 118.312L612.079 117.16C609.434 114.685 607.642 111.528 606.703 107.688C605.764 103.763 605.295 99.1973 605.295 93.992V89.384L605.423 85.032C605.423 84.008 605.38 83.0267 605.295 82.088C605.21 81.1493 605.167 80.296 605.167 79.528C605.167 75.8587 605.252 73.0853 605.423 71.208C605.594 69.3307 606.234 67.0693 607.343 64.424H607.215C607.3 63.912 607.386 63.4 607.471 62.888C607.642 62.376 607.812 62.0347 607.983 61.864V61.992L607.855 62.376L607.983 62.12ZM606.575 84.776V94.248C606.575 101.757 607.812 107.987 610.287 112.936C612.847 117.8 617.412 120.787 623.983 121.896L629.999 122.024C632.9 122.195 635.162 122.28 636.783 122.28C640.794 122.28 644.207 121.853 647.023 121C649.839 120.147 652.058 118.568 653.679 116.264C655.13 114.813 656.068 111.571 656.495 106.536C657.007 101.501 657.434 94.7173 657.775 86.184C657.775 85.416 657.69 82.6853 657.519 77.992C657.348 73.2133 656.836 69.416 655.983 66.6C655.215 63.6987 654.063 61.7787 652.527 60.84C648.687 57.0853 643.098 55.208 635.759 55.208L630.895 55.336C629.786 55.336 628.932 55.2933 628.335 55.208C623.983 55.208 619.972 55.848 616.303 57.128C612.634 58.408 610.244 60.2427 609.135 62.632C608.196 65.96 607.514 68.904 607.087 71.464C606.66 74.024 606.447 76.6693 606.447 79.4L606.575 84.776ZM632.815 74.536C638.788 74.536 641.775 78.9733 641.775 87.848C641.775 91.5173 641.604 94.4613 641.263 96.68C640.922 98.8133 640.026 100.563 638.575 101.928C637.124 103.293 634.906 103.976 631.919 103.976C629.359 103.976 627.268 103.421 625.647 102.312C624.026 101.203 623.215 99.4107 623.215 96.936C623.3 95.8267 623.343 93.864 623.343 91.048C623.343 87.1227 623.428 84.0933 623.599 81.96C623.855 79.7413 624.367 78.3333 625.135 77.736C626.842 75.6027 629.402 74.536 632.815 74.536ZM628.463 81.32C627.78 81.7467 627.354 83.7093 627.183 87.208C627.098 90.6213 627.055 94.76 627.055 99.624C627.055 100.989 627.482 101.843 628.335 102.184C629.188 102.525 630.383 102.696 631.919 102.696C637.124 102.696 639.727 100.904 639.727 97.32C640.239 92.712 640.495 89.384 640.495 87.336C640.495 84.52 640.154 82.344 639.471 80.808C638.874 79.272 637.423 78.504 635.119 78.504C634.607 78.504 633.668 78.5893 632.303 78.76H632.431C630.81 79.1867 629.572 79.9547 628.719 81.064L628.463 81.32ZM666.126 122.152H663.95C663.609 120.019 663.438 117.416 663.438 114.344L663.566 108.584C663.651 107.731 663.694 106.621 663.694 105.256C666.083 104.232 669.411 103.72 673.678 103.72C676.921 103.72 679.651 104.232 681.87 105.256L682.126 107.048C682.382 107.133 682.766 107.219 683.278 107.304C683.79 107.389 684.131 107.645 684.302 108.072C684.558 108.413 684.686 109.053 684.686 109.992C684.686 111.613 684.558 114.088 684.302 117.416C684.046 120.659 683.833 123.133 683.662 124.84L666.51 124.712L666.126 122.152ZM680.206 120.744C680.206 119.549 680.334 116.861 680.59 112.68C680.846 108.499 680.974 106.195 680.974 105.768C679.865 105.256 677.433 105 673.678 105C669.326 105 666.425 105.341 664.974 106.024C664.974 107.048 664.931 107.944 664.846 108.712L664.718 114.984C664.718 117.971 664.846 119.933 665.102 120.872L665.486 121H680.206V120.744Z" fill="#5037E6"/>
<rect x="2" y="104" width="700" height="31" fill="#FB88B4" fill-opacity="0.28"/>
<rect x="2" y="130" width="700" height="5" fill="#F9F07A" fill-opacity="0.42"/>
</svg>
